<mxfile host="app.diagrams.net" agent="Mozilla/5.0 (Windows NT 10.0; Win64; x64) AppleWebKit/537.36 (KHTML, like Gecko) Chrome/134.0.0.0 Safari/537.36" version="26.2.5">
  <diagram name="Page-1" id="G-C-QItUfeimIygQqotp">
    <mxGraphModel dx="870" dy="478" grid="1" gridSize="10" guides="1" tooltips="1" connect="1" arrows="1" fold="1" page="1" pageScale="1" pageWidth="1169" pageHeight="1654" math="0" shadow="0">
      <root>
        <mxCell id="0" />
        <mxCell id="1" parent="0" />
        <mxCell id="N64oov-QHAzwI_JS5-Vn-40" value="" style="rounded=0;whiteSpace=wrap;html=1;fillColor=none;dashed=1;fontFamily=modern;fontSource=https%3A%2F%2Fsourceforge.net%2Fprojects%2Fcm-unicode%2F;" vertex="1" parent="1">
          <mxGeometry x="170" y="280" width="310" height="140" as="geometry" />
        </mxCell>
        <mxCell id="N64oov-QHAzwI_JS5-Vn-8" value="" style="verticalLabelPosition=bottom;shadow=0;dashed=0;align=center;html=1;verticalAlign=top;shape=mxgraph.electrical.radio.aerial_-_antenna_2;fontFamily=modern;fontSource=https%3A%2F%2Fsourceforge.net%2Fprojects%2Fcm-unicode%2F;" vertex="1" parent="1">
          <mxGeometry x="500" y="260" width="30" height="60" as="geometry" />
        </mxCell>
        <mxCell id="N64oov-QHAzwI_JS5-Vn-11" value="" style="verticalLabelPosition=bottom;verticalAlign=top;html=1;shape=mxgraph.basic.arc;startAngle=0.8263178656285476;endAngle=0.173340844809323;rotation=0;fontFamily=modern;fontSource=https%3A%2F%2Fsourceforge.net%2Fprojects%2Fcm-unicode%2F;" vertex="1" parent="1">
          <mxGeometry x="465" y="240" width="100" height="100" as="geometry" />
        </mxCell>
        <mxCell id="N64oov-QHAzwI_JS5-Vn-12" value="" style="verticalLabelPosition=bottom;verticalAlign=top;html=1;shape=mxgraph.basic.arc;startAngle=0.8263178656285476;endAngle=0.173340844809323;rotation=0;fontFamily=modern;fontSource=https%3A%2F%2Fsourceforge.net%2Fprojects%2Fcm-unicode%2F;" vertex="1" parent="1">
          <mxGeometry x="436.25" y="218.5" width="157.5" height="143" as="geometry" />
        </mxCell>
        <mxCell id="N64oov-QHAzwI_JS5-Vn-13" value="" style="verticalLabelPosition=bottom;verticalAlign=top;html=1;shape=mxgraph.basic.arc;startAngle=0.8263178656285476;endAngle=0.173340844809323;rotation=0;fontFamily=modern;fontSource=https%3A%2F%2Fsourceforge.net%2Fprojects%2Fcm-unicode%2F;" vertex="1" parent="1">
          <mxGeometry x="404.53000000000003" y="199.25" width="220.94" height="181.5" as="geometry" />
        </mxCell>
        <mxCell id="N64oov-QHAzwI_JS5-Vn-14" value="" style="verticalLabelPosition=bottom;verticalAlign=top;html=1;shape=mxgraph.basic.arc;startAngle=0.8263178656285476;endAngle=0.173340844809323;rotation=0;fontFamily=modern;fontSource=https%3A%2F%2Fsourceforge.net%2Fprojects%2Fcm-unicode%2F;" vertex="1" parent="1">
          <mxGeometry x="370" y="180" width="290.01" height="220" as="geometry" />
        </mxCell>
        <mxCell id="N64oov-QHAzwI_JS5-Vn-15" value="Tx antenna 1-4" style="text;html=1;align=center;verticalAlign=middle;whiteSpace=wrap;rounded=0;fontFamily=modern;fontSource=https%3A%2F%2Fsourceforge.net%2Fprojects%2Fcm-unicode%2F;" vertex="1" parent="1">
          <mxGeometry x="515" y="280" width="85" height="30" as="geometry" />
        </mxCell>
        <mxCell id="N64oov-QHAzwI_JS5-Vn-18" value="" style="verticalLabelPosition=bottom;shadow=0;dashed=0;align=center;html=1;verticalAlign=top;shape=mxgraph.electrical.radio.aerial_-_antenna_2;rotation=135;fontFamily=modern;fontSource=https%3A%2F%2Fsourceforge.net%2Fprojects%2Fcm-unicode%2F;" vertex="1" parent="1">
          <mxGeometry x="340" y="139.25" width="30" height="60" as="geometry" />
        </mxCell>
        <mxCell id="N64oov-QHAzwI_JS5-Vn-19" value="" style="verticalLabelPosition=bottom;shadow=0;dashed=0;align=center;html=1;verticalAlign=top;shape=mxgraph.electrical.radio.aerial_-_antenna_2;rotation=158;fontFamily=modern;fontSource=https%3A%2F%2Fsourceforge.net%2Fprojects%2Fcm-unicode%2F;" vertex="1" parent="1">
          <mxGeometry x="420" y="90" width="30" height="60" as="geometry" />
        </mxCell>
        <mxCell id="N64oov-QHAzwI_JS5-Vn-20" value="" style="verticalLabelPosition=bottom;shadow=0;dashed=0;align=center;html=1;verticalAlign=top;shape=mxgraph.electrical.radio.aerial_-_antenna_2;rotation=-180;fontFamily=modern;fontSource=https%3A%2F%2Fsourceforge.net%2Fprojects%2Fcm-unicode%2F;" vertex="1" parent="1">
          <mxGeometry x="500" y="70" width="30" height="60" as="geometry" />
        </mxCell>
        <mxCell id="N64oov-QHAzwI_JS5-Vn-26" value="" style="verticalLabelPosition=bottom;shadow=0;dashed=0;align=center;html=1;verticalAlign=top;shape=mxgraph.electrical.radio.aerial_-_antenna_2;rotation=202.5;flipH=1;fontFamily=modern;fontSource=https%3A%2F%2Fsourceforge.net%2Fprojects%2Fcm-unicode%2F;" vertex="1" parent="1">
          <mxGeometry x="594.47" y="91" width="30" height="60" as="geometry" />
        </mxCell>
        <mxCell id="N64oov-QHAzwI_JS5-Vn-27" value="" style="verticalLabelPosition=bottom;shadow=0;dashed=0;align=center;html=1;verticalAlign=top;shape=mxgraph.electrical.radio.aerial_-_antenna_2;rotation=225;fontFamily=modern;fontSource=https%3A%2F%2Fsourceforge.net%2Fprojects%2Fcm-unicode%2F;" vertex="1" parent="1">
          <mxGeometry x="660.01" y="139.25" width="30" height="60" as="geometry" />
        </mxCell>
        <mxCell id="N64oov-QHAzwI_JS5-Vn-28" value="Probes" style="text;html=1;align=center;verticalAlign=middle;whiteSpace=wrap;rounded=0;fontFamily=modern;fontSource=https%3A%2F%2Fsourceforge.net%2Fprojects%2Fcm-unicode%2F;" vertex="1" parent="1">
          <mxGeometry x="485" y="30" width="60" height="30" as="geometry" />
        </mxCell>
        <mxCell id="N64oov-QHAzwI_JS5-Vn-34" style="edgeStyle=orthogonalEdgeStyle;rounded=0;orthogonalLoop=1;jettySize=auto;html=1;exitX=1;exitY=0.5;exitDx=0;exitDy=0;entryX=0;entryY=0.5;entryDx=0;entryDy=0;fontFamily=modern;fontSource=https%3A%2F%2Fsourceforge.net%2Fprojects%2Fcm-unicode%2F;" edge="1" parent="1" source="N64oov-QHAzwI_JS5-Vn-31" target="N64oov-QHAzwI_JS5-Vn-33">
          <mxGeometry relative="1" as="geometry" />
        </mxCell>
        <mxCell id="N64oov-QHAzwI_JS5-Vn-37" style="edgeStyle=orthogonalEdgeStyle;rounded=0;orthogonalLoop=1;jettySize=auto;html=1;exitX=1;exitY=0.5;exitDx=0;exitDy=0;entryX=0;entryY=0.5;entryDx=0;entryDy=0;curved=1;fontFamily=modern;fontSource=https%3A%2F%2Fsourceforge.net%2Fprojects%2Fcm-unicode%2F;" edge="1" parent="1" source="N64oov-QHAzwI_JS5-Vn-31" target="N64oov-QHAzwI_JS5-Vn-36">
          <mxGeometry relative="1" as="geometry" />
        </mxCell>
        <mxCell id="N64oov-QHAzwI_JS5-Vn-31" value="Beamforming Signal" style="rounded=0;whiteSpace=wrap;html=1;fontFamily=modern;fontSource=https%3A%2F%2Fsourceforge.net%2Fprojects%2Fcm-unicode%2F;" vertex="1" parent="1">
          <mxGeometry x="185" y="320" width="92.5" height="30" as="geometry" />
        </mxCell>
        <mxCell id="N64oov-QHAzwI_JS5-Vn-33" value="Tx Port 1-4" style="rounded=0;whiteSpace=wrap;html=1;fontFamily=modern;fontSource=https%3A%2F%2Fsourceforge.net%2Fprojects%2Fcm-unicode%2F;" vertex="1" parent="1">
          <mxGeometry x="363" y="320" width="102" height="30" as="geometry" />
        </mxCell>
        <mxCell id="N64oov-QHAzwI_JS5-Vn-36" value="Internal Time Sink" style="rounded=0;whiteSpace=wrap;html=1;fontFamily=modern;fontSource=https%3A%2F%2Fsourceforge.net%2Fprojects%2Fcm-unicode%2F;" vertex="1" parent="1">
          <mxGeometry x="363" y="370" width="102" height="30" as="geometry" />
        </mxCell>
        <mxCell id="N64oov-QHAzwI_JS5-Vn-39" style="edgeStyle=orthogonalEdgeStyle;rounded=0;orthogonalLoop=1;jettySize=auto;html=1;exitX=1;exitY=0.5;exitDx=0;exitDy=0;entryX=0.5;entryY=1;entryDx=0;entryDy=0;entryPerimeter=0;endArrow=none;startFill=0;fontFamily=modern;fontSource=https%3A%2F%2Fsourceforge.net%2Fprojects%2Fcm-unicode%2F;" edge="1" parent="1" source="N64oov-QHAzwI_JS5-Vn-33" target="N64oov-QHAzwI_JS5-Vn-8">
          <mxGeometry relative="1" as="geometry">
            <Array as="points">
              <mxPoint x="515" y="335" />
            </Array>
          </mxGeometry>
        </mxCell>
        <mxCell id="N64oov-QHAzwI_JS5-Vn-41" value="USRP x410" style="text;html=1;align=center;verticalAlign=middle;whiteSpace=wrap;rounded=0;fontFamily=modern;fontSource=https%3A%2F%2Fsourceforge.net%2Fprojects%2Fcm-unicode%2F;" vertex="1" parent="1">
          <mxGeometry x="290" y="280" width="70" height="30" as="geometry" />
        </mxCell>
      </root>
    </mxGraphModel>
  </diagram>
</mxfile>
